# xmcd
#
# Track frame offsets: 
#        150
#        18412
#        35849
#        55044
#        72437
#        90777
#        105111
#        123970
#        141962
#        156702
#        172943
#        192949
#        207006
#
# Disc length: 2947 seconds
#
# Revision: 0
# Processed by: cddbd v1.5.2PL0 Copyright (c) Steve Scherf et al.
# Submitted via: ExactAudioCopy v1.0b3
#
DISCID=a80b810d
DTITLE=Lenny LeBlanc - Lenny LeBlanc - Anthology
DYEAR=1900
DGENRE=
TTITLE0=Unchained
TTITLE1=Love Came Down
TTITLE2=Rainbow Song
TTITLE3=Whiter Than Snow
TTITLE4=Above All
TTITLE5=There is None Like You
TTITLE6=We All Bow Down
TTITLE7=The Bridge
TTITLE8=I Dance
TTITLE9=Hope
TTITLE10=I Believe
TTITLE11=You First
TTITLE12=Falling
EXTD=
EXTT0=
EXTT1=
EXTT2=
EXTT3=
EXTT4=
EXTT5=
EXTT6=
EXTT7=
EXTT8=
EXTT9=
EXTT10=
EXTT11=
EXTT12=
PLAYORDER=
